Coordinates
version=1
nRows=17
nColumns=40
inDegrees=yes

Units are S.I. units (second, meters, Newtons, ...)
If the header above contains a line with 'inDegrees', this indicates whether rotational values are in degrees (yes) or radians (no).

endheader
time	pelvis_tilt	pelvis_list	pelvis_rotation	pelvis_tx	pelvis_ty	pelvis_tz	hip_flexion_r	hip_adduction_r	hip_rotation_r	knee_angle_r	knee_angle_r_beta	ankle_angle_r	subtalar_angle_r	mtp_angle_r	hip_flexion_l	hip_adduction_l	hip_rotation_l	knee_angle_l	knee_angle_l_beta	ankle_angle_l	subtalar_angle_l	mtp_angle_l	lumbar_extension	lumbar_bending	lumbar_rotation	arm_flex_r	arm_add_r	arm_rot_r	elbow_flex_r	pro_sup_r	wrist_flex_r	wrist_dev_r	arm_flex_l	arm_add_l	arm_rot_l	elbow_flex_l	pro_sup_l	wrist_flex_l	wrist_dev_l
      1.98500000	    -12.44033897	     -0.79519965	      0.27390008	     -0.35147656	      0.89330738	     -0.73656649	     47.30604060	      5.40551144	     -1.55541068	     58.68157015	      1.02418661	     18.58343600	      0.00000000	      0.00000000	     19.98725796	     -1.59237818	      3.80617850	     88.64160868	      1.54708793	     -4.55208485	      0.00000000	      0.00000000	    -21.12929568	      3.02495895	      2.86467697	     89.75720580	    -15.58311725	     18.11518263	     49.16086505	     87.35223234	      0.00000000	      0.00000000	     89.87484819	     -7.78189745	     16.58355287	     48.19530332	     86.08026601	      0.00000000	      0.00000000
      1.99000000	    -12.53396795	     -0.79232262	      0.29326938	     -0.35183361	      0.89237134	     -0.73661710	     47.52292969	      5.41555663	     -1.51558853	     58.86127998	      1.02732314	     18.68994480	      0.00000000	      0.00000000	     20.04592266	     -1.57283224	      3.81714498	     88.69578913	      1.54803355	     -4.51648643	      0.00000000	      0.00000000	    -21.11213312	      3.03827500	      2.83272650	     89.76090411	    -15.55541868	     18.08235933	     49.24249034	     87.41378174	      0.00000000	      0.00000000	     89.87563053	     -7.78801248	     16.54361247	     48.25303400	     85.90192757	      0.00000000	      0.00000000
      1.99500000	    -12.59903822	     -0.85817572	      0.31884019	     -0.35222259	      0.89146580	     -0.73658110	     47.72320189	      5.50463940	     -1.51102698	     59.04769097	      1.03057662	     18.82457451	      0.00000000	      0.00000000	     20.06942725	     -1.63113698	      3.85361485	     88.73912129	      1.54878984	     -4.55225465	      0.00000000	      0.00000000	    -21.12404620	      3.10387901	      2.84362307	     89.76602507	    -15.57223243	     18.02773621	     49.33123223	     87.42372030	      0.00000000	      0.00000000	     89.87729529	     -7.88317796	     16.78908478	     48.42351061	     85.76202860	      0.00000000	      0.00000000
      2.00000000	    -12.70876815	     -0.84130871	      0.30477971	     -0.35268499	      0.89047619	     -0.73658888	     47.98216668	      5.54220807	     -1.41043788	     59.24593951	      1.03403671	     18.87668022	      0.00000000	      0.00000000	     20.15030611	     -1.60461363	      3.81632510	     88.79788714	      1.54981550	     -4.52487582	      0.00000000	      0.00000000	    -21.08060842	      3.09437267	      2.82922755	     89.77094592	    -15.44016333	     17.81093272	     49.29772311	     87.35649027	      0.00000000	      0.00000000	     89.87740137	     -7.75928349	     16.35623809	     48.32697045	     86.19528557	      0.00000000	      0.00000000
      2.00500000	    -12.75817693	     -0.89230805	      0.36468503	     -0.35302581	      0.88949139	     -0.73664730	     48.16982528	      5.57364088	     -1.44086647	     59.46428819	      1.03784762	     19.05423468	      0.00000000	      0.00000000	     20.16463265	     -1.61323196	      3.89006838	     88.87577058	      1.55117482	     -4.43948911	      0.00000000	      0.00000000	    -21.10858864	      3.16344089	      2.77286697	     89.77833012	    -15.60415158	     18.22921181	     49.56616624	     87.07547763	      0.00000000	      0.00000000	     89.87908719	     -7.96162323	     16.75020056	     48.60373313	     85.61312251	      0.00000000	      0.00000000
      2.01000000	    -12.86751409	     -0.95465770	      0.37764835	     -0.35347226	      0.88855089	     -0.73665962	     48.42155337	      5.65980598	     -1.40120162	     59.64088630	      1.04092983	     19.02669339	      0.00000000	      0.00000000	     20.26992861	     -1.66932625	      3.92367198	     88.95921116	      1.55263113	     -4.40145321	      0.00000000	      0.00000000	    -21.06389699	      3.22778912	      2.79310171	     89.77882949	    -15.40474619	     17.65173198	     49.42359247	     87.36306459	      0.00000000	      0.00000000	     89.88013737	     -7.74806498	     16.28586427	     48.46987200	     86.08504589	      0.00000000	      0.00000000
      2.01500000	    -12.88537646	     -1.01140259	      0.39864543	     -0.35384198	      0.88774274	     -0.73663543	     48.55442279	      5.71573159	     -1.42858394	     59.79583448	      1.04363419	     19.13761139	      0.00000000	      0.00000000	     20.24122199	     -1.74218157	      3.91298989	     89.00200992	      1.55337811	     -4.34083447	      0.00000000	      0.00000000	    -21.13047724	      3.29647215	      2.76560570	     89.78753929	    -15.44787947	     17.88160299	     49.57412287	     87.13807173	      0.00000000	      0.00000000	     89.88095284	     -7.87405445	     16.50009792	     48.65832440	     85.75104481	      0.00000000	      0.00000000
      2.02000000	    -12.98977254	     -1.06579121	      0.41327846	     -0.35437703	      0.88672767	     -0.73663846	     48.81281113	      5.80145333	     -1.38624094	     59.99936481	      1.04718647	     19.22548437	      0.00000000	      0.00000000	     20.34267171	     -1.76809287	      3.95864440	     89.07718896	      1.55469024	     -4.48139694	      0.00000000	      0.00000000	    -21.10069777	      3.34764241	      2.80844429	     89.78781059	    -15.36126494	     17.47816808	     49.55635012	     87.29308890	      0.00000000	      0.00000000	     89.88225864	     -7.70333255	     16.12533124	     48.60947351	     86.14211506	      0.00000000	      0.00000000
      2.02500000	    -13.05962409	     -1.09759699	      0.43480823	     -0.35472903	      0.88580789	     -0.73662894	     49.01373489	      5.86059802	     -1.32879242	     60.18279352	      1.05038790	     19.23875793	      0.00000000	      0.00000000	     20.36949235	     -1.78042277	      3.98010052	     89.13422154	      1.55568564	     -4.43023814	      0.00000000	      0.00000000	    -21.10376644	      3.38466041	      2.78856186	     89.79214292	    -15.31254390	     17.36945266	     49.57904897	     87.36403731	      0.00000000	      0.00000000	     89.88333532	     -7.70738302	     16.10410008	     48.65185468	     85.98426660	      0.00000000	      0.00000000
      2.03000000	    -13.35888051	     -0.84619593	      0.40555956	     -0.35558497	      0.88434442	     -0.73700746	     49.57461856	      5.67327028	     -1.08387448	     60.55179981	      1.05682827	     19.33627940	      0.00000000	      0.00000000	     20.70147175	     -1.43550407	      3.87431396	     89.22503763	      1.55727068	     -4.47729194	      0.00000000	      0.00000000	    -20.86288284	      3.14256336	      2.71741426	     89.79595652	    -15.27899579	     17.29785026	     49.62308165	     87.26464605	      0.00000000	      0.00000000	     89.88467809	     -7.67455865	     15.99117261	     48.69357261	     86.23427713	      0.00000000	      0.00000000
      2.03500000	    -13.45366346	     -0.88933595	      0.47280038	     -0.35602187	      0.88333817	     -0.73713063	     49.81978246	      5.69977934	     -1.05983190	     60.75319848	      1.06034334	     19.40102747	      0.00000000	      0.00000000	     20.78801096	     -1.44341164	      3.93438978	     89.30762858	      1.55871217	     -4.49967507	      0.00000000	      0.00000000	    -20.83364163	      3.19461166	      2.68486898	     89.79905899	    -15.31875022	     17.20611818	     49.68387966	     87.28037652	      0.00000000	      0.00000000	     89.88604632	     -7.65707684	     16.00651465	     48.74686554	     86.13709189	      0.00000000	      0.00000000
      2.04000000	    -13.54970817	     -0.94347988	      0.49281197	     -0.35633710	      0.88231979	     -0.73715042	     50.05215000	      5.75073003	     -1.09718031	     60.95905805	      1.06393627	     19.50619581	      0.00000000	      0.00000000	     20.84369222	     -1.47502162	      3.97358924	     89.36637299	      1.55973745	     -4.49994484	      0.00000000	      0.00000000	    -20.80239269	      3.25612893	      2.68983438	     89.80078764	    -15.31321295	     17.19288657	     49.79669777	     87.33463170	      0.00000000	      0.00000000	     89.88691133	     -7.67009619	     16.07024287	     48.82960878	     85.95473407	      0.00000000	      0.00000000
      2.04500000	    -13.57245561	     -1.02825918	      0.57807849	     -0.35664352	      0.88142657	     -0.73723237	     50.16329767	      5.76500669	     -1.22190815	     61.09053182	      1.06623092	     19.78595507	      0.00000000	      0.00000000	     20.81515646	     -1.51889029	      4.05824783	     89.41030747	      1.56050425	     -4.45065168	      0.00000000	      0.00000000	    -20.85937807	      3.37794427	      2.55323870	     89.80926562	    -15.40091489	     17.61308617	     50.04072285	     87.00230222	      0.00000000	      0.00000000	     89.88707335	     -7.90776208	     16.34781218	     49.11852947	     84.96170760	      0.00000000	      0.00000000
      2.05000000	    -13.69952701	     -1.01139092	      0.56973629	     -0.35713136	      0.88038331	     -0.73725199	     50.47085454	      5.79646889	     -1.11963779	     61.33184236	      1.07044259	     19.68279056	      0.00000000	      0.00000000	     20.92597401	     -1.48191318	      4.02723888	     89.47262910	      1.56159197	     -4.50041778	      0.00000000	      0.00000000	    -20.78803298	      3.34310016	      2.61806457	     89.80842011	    -15.24581708	     17.02754697	     49.88455544	     87.22655607	      0.00000000	      0.00000000	     89.88788887	     -7.60132846	     15.78662481	     48.89070989	     86.32064334	      0.00000000	      0.00000000
      2.05500000	    -13.72729783	     -1.09230077	      0.63790629	     -0.35740357	      0.87947802	     -0.73731287	     50.58333281	      5.82880150	     -1.20585781	     61.45853759	      1.07265383	     20.00989418	      0.00000000	      0.00000000	     20.91422937	     -1.54032206	      4.10719433	     89.52355959	      1.56248087	     -4.53806933	      0.00000000	      0.00000000	    -20.84167241	      3.45270248	      2.55649385	     89.81254574	    -15.37950709	     17.49216050	     50.18681087	     86.76089626	      0.00000000	      0.00000000	     89.88956040	     -7.77248134	     16.20518826	     49.19484312	     84.88062453	      0.00000000	      0.00000000
      2.06000000	    -13.85466365	     -1.11382703	      0.64449364	     -0.35787726	      0.87838166	     -0.73728912	     50.90968166	      5.88131007	     -1.14709408	     61.74158920	      1.07759402	     19.86496437	      0.00000000	      0.00000000	     21.01661991	     -1.55782668	      4.09404803	     89.59029175	      1.56364557	     -4.73715417	      0.00000000	      0.00000000	    -20.76483101	      3.45964103	      2.56729200	     89.81386597	    -15.18300691	     16.82835848	     49.94865210	     87.29119624	      0.00000000	      0.00000000	     89.88970247	     -7.54793474	     15.60559429	     48.98667393	     86.12920094	      0.00000000	      0.00000000
      2.06500000	    -13.92053066	     -1.15519185	      0.68538439	     -0.35825275	      0.87745506	     -0.73734252	     51.09797750	      5.90505697	     -1.16213400	     61.91324968	      1.08059006	     19.95607840	      0.00000000	      0.00000000	     21.04207802	     -1.57030750	      4.12642778	     89.63453443	      1.56441775	     -4.68946890	      0.00000000	      0.00000000	    -20.77436606	      3.50267947	      2.53741919	     89.81654270	    -15.19600224	     16.79909948	     50.05075057	     87.22309734	      0.00000000	      0.00000000	     89.89049143	     -7.55830568	     15.60850958	     49.09771354	     86.27259782	      0.00000000	      0.00000000
